HIERARCHY
ROOT pelvis
{
  OFFSET 0 100 0
  CHANNELS 6 Xposition Yposition Zposition Zrotation Xrotation Yrotation
  JOINT pelvis_right_femur
  {
    OFFSET -10.78128 -3.44521 -0.5502486
    CHANNELS 3 Zrotation Xrotation Yrotation
    JOINT right_femur_tibia
    {
      OFFSET -0.8047443 -44.0398 -0.1307829
      CHANNELS 3 Zrotation Xrotation Yrotation
      JOINT right_tibia_foot
      {
        OFFSET 3.006224 -47.83518 -5
        CHANNELS 3 Zrotation Xrotation Yrotation
        End Site
        {
          OFFSET 0 -5 15
        }
      }
    }
  }
  JOINT pelvis_left_femur
  {
    OFFSET 10.78128 -3.44521 -0.5502486
    CHANNELS 3 Zrotation Xrotation Yrotation
    JOINT left_femur_tibia
    {
      OFFSET 0.8047443 -44.0398 -0.1307829
      CHANNELS 3 Zrotation Xrotation Yrotation
      JOINT left_tibia_foot
      {
        OFFSET -4.370144 -48.10324 -4.275266
        CHANNELS 3 Zrotation Xrotation Yrotation
        End Site
        {
          OFFSET 0 -5 15
        }
      }
    }
  }
  JOINT pelvis_spine1
  {
    OFFSET 0 6.468898 -3.129235
    CHANNELS 3 Zrotation Xrotation Yrotation
    JOINT spine1
    {
      OFFSET 0 23.15396 4.99043
      CHANNELS 3 Zrotation Xrotation Yrotation
      JOINT spine2
      {
        OFFSET 0 20.79997 -5.064912
        CHANNELS 3 Zrotation Xrotation Yrotation
        JOINT neck
        {
          OFFSET 0 14.38658 9.616178
          CHANNELS 3 Zrotation Xrotation Yrotation
          End Site
          {
            OFFSET 0 20 0
          }
        }
      }
      JOINT right_manubrium
      {
        OFFSET -5.722621 16.35077 3.967754
        CHANNELS 3 Zrotation Xrotation Yrotation
        JOINT right_clavicle
        {
          OFFSET -13.16364 1.694482 -4.693211
          CHANNELS 3 Zrotation Xrotation Yrotation
          JOINT right_humerus
          {
            OFFSET -28.5034 -0.3100689 -2.792744
            CHANNELS 3 Zrotation Xrotation Yrotation
            JOINT right_radius
            {
              OFFSET -25.15693 0.02248979 -1.271978
              CHANNELS 3 Zrotation Xrotation Yrotation
              End Site
              {
                OFFSET -15 0 0
              }
            }
          }
        }
      }
      JOINT left_manubrium
      {
        OFFSET 5.722621 16.35077 3.967754
        CHANNELS 3 Zrotation Xrotation Yrotation
        JOINT left_clavicle
        {
          OFFSET 13.16364 1.694482 -4.693211
          CHANNELS 3 Zrotation Xrotation Yrotation
          JOINT left_humerus
          {
            OFFSET 29.39168 -1.063119 -2.237045
            CHANNELS 3 Zrotation Xrotation Yrotation
            JOINT left_radius
            {
              OFFSET 24.59957 -0.9528479 0.9047498
              CHANNELS 3 Zrotation Xrotation Yrotation
              End Site
              {
                OFFSET 15 -0 -0
              }
            }
          }
        }
      }
    }
  }
}
MOTION
Frames: 15
Frame Time: 0.0416666666667
0 103.5113 0 2.151088 -0.3339176 0.01307798 3.512033 -14.44989 11.82373 -0 36.4973 -0 -4.274119 -17.09675 -4.088861 -7.878456 8.619807 -21.83718 -0 4.649186 -0 20.98959 -9.301478 28.62054 -3.117066 -2.45892 5.585032 2.349837 10.50652 -6.574142 1.884952 21.72044 5.750265 2.547636 -25.65925 9.587661 5.122218 -21.65985 11.09229 86.57438 38.37788 -17.14932 -0 0 14.78619 -7.336001 8.012516 5.597752 4.639564 -19.05029 -3.750229 -90.84486 21.76199 21.45497 0 0 -17.96315 16.14141 12.21874 -2.582954
0.4741278 103.5538 1.530416 1.612949 0.7222484 -0.0546971 4.311493 -17.64969 12.43419 -0 37.14341 -0 -4.47755 -16.40801 -4.15113 -7.762733 8.829136 -21.7635 -0 4.617005 -0 20.81107 -10.33327 28.82036 -3.125334 -2.409756 5.552634 2.378661 10.27066 -6.600846 1.872762 21.63319 5.866379 2.542585 -25.91968 9.68822 5.129525 -21.65865 11.11521 86.39638 38.7867 -16.98216 -0 0 14.73387 -7.14689 8.05203 5.908548 4.716231 -18.94204 -3.557211 -90.32469 22.08777 20.75463 0 0 -19.26831 16.16959 11.95205 -2.416384
0.8287451 103.5362 3.300795 0.7725608 0.9610873 -0.1654665 5.34483 -20.96894 11.50686 -0 36.28571 -0 -5.877199 -14.4879 -3.998202 -7.253894 9.334115 -20.89708 -0 6.535112 -0 19.47399 -12.21782 28.52271 -3.236094 -2.327778 5.510259 2.344003 10.47492 -6.427486 1.816675 21.76944 5.771801 2.517128 -25.68654 9.532166 5.046455 -21.87974 11.18486 86.19061 38.4022 -16.29501 -0 0 14.99445 -7.838131 8.012187 6.187999 4.452247 -18.77778 -3.799663 -90.51902 21.18986 21.34708 0 0 -17.5227 16.45205 11.81407 -3.163431
1.076255 103.4476 5.431508 -0.1265836 1.166404 -0.3290704 6.43136 -24.63398 10.39675 -0 34.37419 -0 -7.273224 -12.06374 -3.680073 -6.627226 9.957909 -19.79225 -0 8.877527 -0 17.65378 -14.34695 27.71699 -3.294426 -2.32883 5.499635 2.339978 10.5728 -6.373277 1.795001 21.81371 5.74331 2.507815 -25.59143 9.487085 5.015677 -22.00891 11.22192 86.15292 38.24828 -16.07623 -0 0 15.11981 -8.056203 7.984839 6.254776 4.336066 -18.71481 -3.927009 -90.62677 20.81361 21.64839 0 0 -16.84411 16.58543 11.76295 -3.472543
1.238415 103.2714 8.031316 -0.9523975 1.402719 -0.4890005 7.377606 -28.17047 9.176967 -0 31.24711 -0 -8.422384 -9.406591 -3.212066 -5.956465 10.74461 -18.62204 -0 11.35212 -0 15.09198 -16.59762 26.19464 -3.372274 -2.415962 5.517186 2.357078 10.73843 -6.35875 1.780203 21.84889 5.710427 2.500143 -25.44972 9.461155 4.99454 -22.19803 11.26478 86.25217 38.03336 -16.05937 -0 0 15.27325 -8.140368 7.922322 6.134881 4.195596 -18.69591 -4.13729 -90.90648 20.39814 22.2043 0 0 -16.02854 16.72314 11.79185 -3.76974
1.337136 103.0241 11.18985 -1.608032 1.775276 -0.5596239 8.050083 -31.08149 7.953459 -0 27.1502 -0 -9.195016 -6.848391 -2.664364 -5.315416 11.66142 -17.5369 -0 13.76376 -0 11.73802 -18.62495 23.83457 -3.43815 -2.522531 5.551804 2.377131 10.89727 -6.36608 1.764769 21.87234 5.68339 2.50005 -25.29622 9.433008 4.975813 -22.37553 11.3008 86.3788 37.81965 -16.12385 -0 0 15.42279 -8.167426 7.856101 5.959404 4.077721 -18.71629 -4.337271 -91.2159 20.04558 22.77799 0 0 -15.30593 16.80622 11.85834 -3.96847
1.385404 102.769 14.95863 -2.071502 2.29144 -0.4680487 8.409608 -32.82341 6.817357 -0 22.95472 -0 -9.643677 -4.753532 -2.149149 -4.747161 12.57738 -16.59649 -0 16.26357 -0 7.756041 -19.88167 20.70612 -3.506998 -2.636419 5.598581 2.395855 11.06379 -6.373939 1.73684 21.89538 5.659163 2.507031 -25.10601 9.382177 4.94579 -22.57887 11.34298 86.49238 37.57045 -16.16151 -0 0 15.61291 -8.226984 7.783159 5.787591 3.951643 -18.7527 -4.551779 -91.5537 19.64517 23.42036 0 0 -14.51562 16.86682 11.92753 -4.151594
1.389066 102.6106 19.34693 -2.42633 2.793895 -0.2161388 8.573873 -33.08385 5.836262 -0 19.74109 -0 -10.00188 -3.330885 -1.736972 -4.22789 13.22312 -15.68668 -0 19.56101 -0 3.634147 -19.75781 17.13847 -3.570894 -2.72392 5.646608 2.401637 11.22208 -6.362844 1.691576 21.92334 5.639766 2.525047 -24.88399 9.295305 4.899888 -22.79124 11.39156 86.54549 37.29252 -16.09156 -0 0 15.84025 -8.389125 7.721048 5.690766 3.822712 -18.79236 -4.764038 -91.8637 19.1854 24.05649 0 0 -13.66689 16.91079 11.96858 -4.340162
1.357131 102.6674 24.31555 -2.757527 3.022516 0.09403202 8.694248 -31.82309 5.021372 -0 18.02526 -0 -10.46894 -2.614581 -1.428557 -3.707563 13.21749 -14.64467 -0 24.52948 -0 -0.05060862 -17.92805 13.60931 -3.631819 -2.778255 5.691123 2.392693 11.37253 -6.325224 1.627144 21.95487 5.629291 2.555416 -24.63536 9.172955 4.837491 -23.02106 11.45203 86.52844 36.9867 -15.88623 -0 0 16.10929 -8.672332 7.676661 5.697269 3.684205 -18.82329 -4.981743 -92.12504 18.64786 24.67327 0 0 -12.76717 16.95293 11.9588 -4.554355
1.306289 103.0427 29.76726 -3.041772 2.795741 0.2993636 8.807513 -29.1467 4.338947 -0 17.43551 -0 -11.01353 -2.552255 -1.210665 -3.175616 12.14311 -13.42546 -0 31.57787 -0 -2.970047 -14.58602 10.53233 -3.688861 -2.796182 5.727501 2.36914 11.51352 -6.257767 1.546028 21.98509 5.631507 2.597018 -24.37619 9.023712 4.761422 -23.27016 11.52784 86.44116 36.6604 -15.54104 -0 0 16.41428 -9.072468 7.658186 5.824752 3.534088 -18.83365 -5.207031 -92.31726 18.04195 25.24713 0 0 -11.86249 17.001 11.88139 -4.795576
1.251683 103.7992 35.53865 -3.150757 2.110436 0.2545302 8.810763 -25.1961 3.773753 -0 17.13697 -0 -11.39194 -3.086142 -1.120162 -2.692539 9.654701 -12.13537 -0 40.33106 -0 -5.121258 -10.43302 8.219314 -3.743466 -2.777903 5.75073 2.332984 11.64739 -6.156163 1.450989 22.00708 5.649799 2.645448 -24.12578 8.859012 4.673756 -23.55074 11.62614 86.28222 36.31213 -15.04339 -0 0 16.75798 -9.587659 7.675289 6.097302 3.363834 -18.80454 -5.44575 -92.42496 17.36931 25.77064 0 0 -10.98679 17.06263 11.71569 -5.067191
1.193975 104.9274 41.40781 -2.923017 1.078458 -0.09297053 8.513144 -20.16062 3.31989 -0 16.39647 -0 -11.38198 -4.15961 -1.204626 -2.380891 5.600079 -10.93712 -0 49.63923 -0 -6.58024 -6.528048 6.978096 -3.795823 -2.721429 5.752095 2.285512 11.77721 -6.01209 1.345363 22.01205 5.686317 2.692108 -23.9097 8.691894 4.576269 -23.88012 11.75751 86.0393 35.92834 -14.35875 -0 0 17.15308 -10.23315 7.746988 6.559034 3.163016 -18.70862 -5.698718 -92.42957 16.62741 26.23583 0 0 -10.16156 17.14264 11.43769 -5.376016
1.119441 106.3082 47.14182 -2.24627 -0.180521 -0.6637407 7.739035 -14.36276 2.894745 -0 14.84897 -0 -11.02813 -5.619774 -1.393127 -2.342778 0.1433256 -9.911676 -0 57.68548 -0 -7.279836 -3.974017 7.016627 -3.845038 -2.632532 5.721453 2.230421 11.90761 -5.819858 1.233295 21.98543 5.741191 2.721263 -23.75887 8.538851 4.47217 -24.28679 11.93709 85.69399 35.47466 -13.44359 -0 0 17.63317 -11.02893 7.902513 7.263709 2.922276 -18.51569 -5.9564 -92.32267 15.81593 26.64957 0 0 -9.396696 17.23189 11.03277 -5.718723
1.020191 107.7019 52.5911 -1.183806 -1.542071 -1.277409 6.540494 -8.30359 2.402602 -0 12.5333 -0 -10.57445 -7.099618 -1.455872 -2.448648 -6.232289 -8.9355 -0 62.35156 -0 -7.115286 -3.261013 8.163324 -3.88818 -2.535343 5.651048 2.177417 12.04237 -5.587014 1.12093 21.90452 5.809919 2.70769 -23.70606 8.420438 4.370655 -24.80651 12.1815 85.23138 34.89606 -12.27461 -0 0 18.25441 -11.97612 8.179721 8.251298 2.641892 -18.20576 -6.188204 -92.12093 14.95663 27.03935 0 0 -8.702987 17.29205 10.51738 -6.060067
0.9169964 108.7994 57.76373 -0.08674084 -2.7838 -1.781675 5.345028 -2.573986 1.964268 -0 9.842531 -0 -10.08683 -8.226052 -1.213376 -2.177296 -12.88222 -7.689423 -0 61.94492 -0 -6.309058 -3.760578 9.876247 -3.919683 -2.472202 5.539904 2.141179 12.18202 -5.339846 1.01664 21.74431 5.879678 2.621095 -23.77173 8.35394 4.290621 -25.46568 12.50076 84.6519 34.1331 -10.87797 -0 0 19.07808 -13.04329 8.617627 9.520469 2.339482 -17.78624 -6.342065 -91.87096 14.10428 27.44331 0 0 -8.096762 17.25458 9.953881 -6.327486
